<mxfile host="app.diagrams.net" agent="Mozilla/5.0 (Windows NT 10.0; Win64; x64) AppleWebKit/537.36 (KHTML, like Gecko) Chrome/134.0.0.0 Safari/537.36 Edg/134.0.0.0" version="26.2.13">
  <diagram name="Page-1" id="Q83C4YGKsEye-U7QSNEi">
    <mxGraphModel dx="705" dy="497" grid="1" gridSize="10" guides="1" tooltips="1" connect="1" arrows="1" fold="1" page="1" pageScale="1" pageWidth="850" pageHeight="1100" math="0" shadow="0">
      <root>
        <mxCell id="0" />
        <mxCell id="1" parent="0" />
        <mxCell id="sE41hv_V2Ui6PhJx60Dm-3" value="" style="edgeStyle=orthogonalEdgeStyle;rounded=0;orthogonalLoop=1;jettySize=auto;html=1;" edge="1" parent="1" source="sE41hv_V2Ui6PhJx60Dm-1" target="sE41hv_V2Ui6PhJx60Dm-2">
          <mxGeometry relative="1" as="geometry" />
        </mxCell>
        <mxCell id="sE41hv_V2Ui6PhJx60Dm-1" value="RBI Statistics" style="rounded=0;whiteSpace=wrap;html=1;" vertex="1" parent="1">
          <mxGeometry x="140" y="50" width="120" height="60" as="geometry" />
        </mxCell>
        <mxCell id="sE41hv_V2Ui6PhJx60Dm-2" value="" style="shape=image;verticalLabelPosition=bottom;labelBackgroundColor=default;verticalAlign=top;aspect=fixed;imageAspect=0;image=https://upload.wikimedia.org/wikipedia/commons/thumb/1/1f/Python_logo_01.svg/640px-Python_logo_01.svg.png;" vertex="1" parent="1">
          <mxGeometry x="125" y="240" width="150" height="150" as="geometry" />
        </mxCell>
      </root>
    </mxGraphModel>
  </diagram>
</mxfile>
